<?xml version="1.0" encoding="UTF-8"?>
<svg id="Layer_1" xmlns="http://www.w3.org/2000/svg" version="1.1" viewBox="0 0 150 150">
  <!-- Generator: Adobe Illustrator 29.5.1, SVG Export Plug-In . SVG Version: 2.1.0 Build 141)  -->
  <defs>
    <style>
      .st0 {
        fill: none;
        stroke: #000;
        stroke-width: 12px;
      }
    </style>
  </defs>
  <path class="st0" d="M133.2,38.9c-6.7-6.5-11.7-10.6-21.4-10.6s-9.5-2.1-13.2-6.1-23.6-4.4-23.6-4.4c0,0-19.9.4-23.6,4.4-3.7,4-3.5,6.1-13.2,6.1s-14.7,4-21.4,10.6c-6.7,6.6-8,29.6-7.8,35.9s-.2,32.8,10.4,32.5c10.6-.2,10.6-30.9,18.4-30.9s14.1-.6,16.5,2.5,6.3,15.8,8.6,33c2.4,17.1,9.5,20.3,12.1,20.3s9.7-3.2,12.1-20.3c2.4-17.1,6.3-29.8,8.6-33,2.4-3.2,8.6-2.5,16.5-2.5s7.8,30.6,18.4,30.9c10.6.2,10.2-26.2,10.4-32.5.2-6.3-1.1-29.4-7.8-35.9h0Z"/>
</svg>